<svg xmlns="http://www.w3.org/2000/svg" viewBox="0 0 24 24" width="48" height="48">
  <path fill="#26A5E4" d="M12 0C5.374 0 0 5.372 0 12c0 6.627 5.374 12 12 12 6.627 0 12-5.373 12-12 0-6.628-5.373-12-12-12zm3.224 17.871c.188.133.43.166.646.085a.678.678 0 0 0 .382-.442c.32-1.496.882-5.27 1.187-6.997.026-.14-.032-.266-.153-.32-.107-.046-.245-.018-.337.07-.563.535-1.687 1.611-2.22 2.107-.119.109-.261.125-.403.044-.415-.237-1.578-.913-2.539-1.569-.146-.1-.144-.283.037-.392 0 0 1.677-1.495 1.717-1.531.211-.188 1.305-1.229 1.305-1.356 0-.17-.18-.174-.18-.174-.096-.013-.211.037-.313.094l-6.46 4.142c-.124.067-.19.186-.18.315.02.135.117.25.255.302 0 0 1.997.51 2.755.706.7.181 3.1.759 3.1.759l.218.55Z"/>
</svg>
